<svg height="496pt" viewBox="0 0 496 496" width="496pt" xmlns="http://www.w3.org/2000/svg"><path d="m136 168c0 4.417969-3.582031 8-8 8s-8-3.582031-8-8 3.582031-8 8-8 8 3.582031 8 8zm0 0"/><path d="m216 168c0 4.417969-3.582031 8-8 8s-8-3.582031-8-8 3.582031-8 8-8 8 3.582031 8 8zm0 0"/><path d="m200 216h-16c0 8.824219-7.175781 16-16 16s-16-7.175781-16-16h-16c0 17.648438 14.351562 32 32 32s32-14.351562 32-32zm0 0"/><path d="m392 128c-4.40625 0-8-3.585938-8-8h-16c0 10.414062 6.710938 19.214844 16 22.527344v17.472656h16v-17.472656c9.289062-3.3125 16-12.113282 16-22.527344 0-13.230469-10.769531-24-24-24-4.40625 0-8-3.585938-8-8s3.59375-8 8-8 8 3.585938 8 8h16c0-10.414062-6.710938-19.214844-16-22.527344v-17.472656h-16v17.472656c-9.289062 3.3125-16 12.113282-16 22.527344 0 13.230469 10.769531 24 24 24 4.40625 0 8 3.585938 8 8s-3.59375 8-8 8zm0 0"/><path d="m392 192c48.519531 0 88-39.480469 88-88s-39.480469-88-88-88-88 39.480469-88 88 39.480469 88 88 88zm0-160c39.695312 0 72 32.296875 72 72s-32.304688 72-72 72-72-32.296875-72-72 32.304688-72 72-72zm0 0"/><path d="m384 248c-44.753906 0-83.351562 26.449219-101.273438 64.480469l-66.726562-22.25v-16.574219c17.679688-11.558594 30.910156-29.304688 36.710938-50.136719 19.816406-2.359375 35.289062-19.078125 35.289062-39.519531v-71.785156c0-61.871094-50.34375-112.214844-112.222656-112.214844-37.257813 0-71.867188 18.335938-92.800782 49.113281-20.746093 6.597657-34.976562 25.847657-34.976562 47.871094v87.015625c0 20.441406 15.472656 37.160156 35.289062 39.519531 5.789063 20.839844 19.03125 38.578125 36.710938 50.136719v16.574219l-81.703125 27.25c-22.914063 7.625-38.296875 28.976562-38.296875 53.113281v125.40625h336v-34.960938c14.574219 6.953126 30.808594 10.960938 48 10.960938 61.761719 0 112-50.238281 112-112s-50.238281-112-112-112zm-128.335938-41.367188c.167969-2.199218.335938-4.394531.335938-6.632812v-38.527344c9.289062 3.3125 16 12.113282 16 22.527344 0 10.535156-6.871094 19.414062-16.335938 22.632812zm-191.664062-22.632812c0-10.414062 6.710938-19.214844 16-22.527344v38.527344c0 2.238281.167969 4.433594.335938 6.632812-9.464844-3.21875-16.335938-12.097656-16.335938-22.632812zm16-72v32.808594c-5.945312 1.214844-11.328125 3.855468-16 7.390625v-55.222657c0-15.746093 10.664062-29.410156 25.945312-33.222656l3.007813-.753906 2.765625-4.167969c17.882812-26.816406 47.816406-42.832031 80.058594-42.832031 53.054687 0 96.222656 43.167969 96.222656 96.214844v39.984375c-4.671875-3.535157-10.054688-6.183594-16-7.390625v-32.808594h-12.777344c-31.214844 0-61.839844-10.742188-86.230468-30.246094l-6.449219-5.152344-4.941407 6.589844c-13.53125 18.039063-35.066406 28.808594-57.601562 28.808594zm16 88v-72.367188c21.910156-2.03125 42.496094-12.320312 57.28125-28.625 25.222656 18.121094 55.628906 28.296876 86.71875 28.960938v72.03125c0 39.703125-32.304688 72-72 72s-72-32.296875-72-72zm72 88c11.296875 0 22.0625-2.214844 32-6.113281v13.128906c-3.671875 14.710937-16.832031 24.984375-32 24.984375s-28.328125-10.273438-32-24.984375v-13.128906c9.9375 3.898437 20.703125 6.113281 32 6.113281zm-152 82.59375c0-17.242188 10.992188-32.496094 27.351562-37.945312l79.59375-26.527344c6.535157 15.464844 20.511719 26.488281 37.054688 29.207031v144.671875h-80v-72h-16v72h-48zm304 109.40625h-48v-72h-16v72h-80v-144.671875c16.542969-2.71875 30.519531-13.753906 37.054688-29.207031l63.816406 21.269531c-3.144532 10.320313-4.871094 21.265625-4.871094 32.609375 0 37.960938 19.023438 71.519531 48 91.785156zm64-24c-52.9375 0-96-43.0625-96-96s43.0625-96 96-96 96 43.0625 96 96-43.0625 96-96 96zm0 0"/><path d="m408 296h-48v40h-40v48h40v40h48v-40h40v-48h-40zm24 56v16h-40v40h-16v-40h-40v-16h40v-40h16v40zm0 0"/><path d="m128 352h16v16h-16zm0 0"/><path d="m128 384h16v16h-16zm0 0"/><path d="m128 416h16v16h-16zm0 0"/><path d="m208 360h32v16h-32zm0 0"/><path d="m128 448h16v16h-16zm0 0"/></svg>